<svg width="24" height="24" viewBox="0 0 24 24" fill="none" xmlns="http://www.w3.org/2000/svg">
<path d="M8.43848 1.45711C9.60284 0.722273 11.1109 0.891872 12.1025 1.83308C12.7185 2.41775 13.0791 3.24544 13.0791 4.10945V7.72859C13.079 7.90747 12.8628 7.9958 12.7373 7.86824L11.5508 6.66316C11.514 6.62576 11.4932 6.57499 11.4932 6.52254V4.10945C11.4931 3.69961 11.3203 3.29638 11.0205 3.01179C10.5423 2.55799 9.81842 2.48393 9.27441 2.82722C8.49006 3.3225 8.36476 4.43183 9.01758 5.09578L14.9902 11.171C19.2828 15.5364 16.2427 23 10.1719 23.0001C9.73401 23 9.37891 22.6387 9.37891 22.1934C9.37902 21.7482 9.73408 21.3869 10.1719 21.3868C14.8299 21.3867 17.1628 15.6601 13.8691 12.3106L7.89551 6.2364C6.52026 4.83758 6.78577 2.50027 8.43848 1.45711ZM11.4932 11.3936C11.4932 11.2147 11.7104 11.1255 11.8359 11.253L13.0215 12.4591C13.0583 12.4965 13.0791 12.5472 13.0791 12.5997V16.1456C13.0791 17.8525 11.7186 19.2371 10.04 19.2374C8.36132 19.2374 7 17.8527 7 16.1456C7.00025 14.4387 8.36147 13.0548 10.04 13.0548H11.293C11.4033 13.0548 11.4929 12.9658 11.4932 12.8555V11.3936ZM10.04 14.668C9.23733 14.668 8.58619 15.3294 8.58594 16.1456C8.58594 16.962 9.23717 17.6241 10.04 17.6241C10.8427 17.6239 11.4932 16.9619 11.4932 16.1456V14.8682C11.4932 14.7578 11.4034 14.668 11.293 14.668H10.04Z" fill="black"/>
</svg>
