<svg width="24" height="24" viewBox="0 0 24 24" fill="none" xmlns="http://www.w3.org/2000/svg">
<path d="M8.43848 1.45709C9.60284 0.722285 11.1109 0.891868 12.1025 1.83307C12.7185 2.41774 13.0791 3.24541 13.0791 4.10944V7.72858C13.079 7.90729 12.8629 7.99611 12.7373 7.8692L11.5508 6.66315C11.514 6.62574 11.4932 6.57499 11.4932 6.52252V4.10944C11.4931 3.69959 11.3203 3.29636 11.0205 3.01178C10.5423 2.55801 9.81841 2.48393 9.27441 2.82721C8.49004 3.32247 8.36479 4.4318 9.01758 5.09577L14.9902 11.171C19.2828 15.5364 16.2427 23 10.1719 23.0001C9.73401 23 9.37891 22.6387 9.37891 22.1934C9.37906 21.7483 9.7341 21.3878 10.1719 21.3878C14.8299 21.3877 17.1628 15.6601 13.8691 12.3106L7.89551 6.23639C6.52031 4.83756 6.78578 2.50025 8.43848 1.45709ZM11.4932 11.3936C11.4932 11.2147 11.7104 11.1256 11.8359 11.253L13.0215 12.459C13.0583 12.4965 13.0791 12.5472 13.0791 12.5997V16.1465C13.0789 17.8533 11.7184 19.2371 10.04 19.2374C8.36146 19.2374 7.00023 17.8534 7 16.1465C7 14.4395 8.36132 13.0547 10.04 13.0547H11.293C11.4033 13.0547 11.493 12.9658 11.4932 12.8555V11.3936ZM10.04 14.668C9.23717 14.668 8.58594 15.3301 8.58594 16.1465C8.58617 16.9628 9.23731 17.6241 10.04 17.6241C10.8426 17.6238 11.4929 16.9626 11.4932 16.1465V14.8682C11.4932 14.7578 11.4034 14.668 11.293 14.668H10.04Z" fill="#8658A9"/>
</svg>
